<?xml version="1.0" encoding="utf-8"?>
<!-- Generator: Adobe Illustrator 15.0.2, SVG Export Plug-In . SVG Version: 6.00 Build 0)  -->
<!DOCTYPE svg PUBLIC "-//W3C//DTD SVG 1.0//EN" "http://www.w3.org/TR/2001/REC-SVG-20010904/DTD/svg10.dtd">
<svg version="1.0" id="Calque_2" xmlns="http://www.w3.org/2000/svg" xmlns:xlink="http://www.w3.org/1999/xlink" x="0px" y="0px"
	 width="595.28px" height="841.89px" viewBox="0 0 595.28 841.89" enable-background="new 0 0 595.28 841.89" xml:space="preserve">
<path fill="#4B9AD0" d="M112.031,673.333h4.041h35.24l22.895-71.379c4.938-13.467,15.711-12.568,15.711-12.568l44.892,1.796
	c31.874,0,21.548-34.118,21.548-34.118c-1.795-10.325,7.632-14.365,7.632-14.365c8.081-5.387,1.796-10.326,1.796-10.326
	c-0.449-2.243-20.202-5.387-20.202-5.387c14.814,2.245,21.998-1.347,21.998-1.347c6.285-2.243,0-12.12,0-12.12
	c-4.489-8.081,2.244-15.264,2.244-15.264l13.468-7.632c9.876-5.836,0.898-17.508,0.898-17.508l-19.752-28.281
	c-7.183-7.632-4.938-22.222-4.938-22.222c4.041-17.508-2.693-52.523-2.693-52.523c-21.548-103.027-142.083-88.886-144.776-88.886
	V673.333z"/>
<path fill="#2D7BBB" d="M56.331,673.333h4.333h37.797l24.556-76.558c5.297-14.444,16.852-13.48,16.852-13.48l48.149,1.926
	c34.186,0,23.111-36.593,23.111-36.593c-1.925-11.074,8.186-15.408,8.186-15.408c8.667-5.777,1.926-11.075,1.926-11.075
	c-0.481-2.406-21.667-5.777-21.667-5.777c15.889,2.408,23.593-1.444,23.593-1.444c6.741-2.406,0-13,0-13
	c-4.815-8.667,2.407-16.371,2.407-16.371l14.445-8.186c10.593-6.259,0.963-18.777,0.963-18.777l-21.186-30.334
	c-7.704-8.186-5.296-23.833-5.296-23.833c4.333-18.778-2.889-56.334-2.889-56.334C188.5,237.585,59.22,252.752,56.331,252.752
	V673.333z"/>
<path fill="#005EA8" d="M2,673.333h4.519h39.412l25.605-79.828c5.523-15.062,17.572-14.057,17.572-14.057l50.207,2.008
	c35.646,0,24.099-38.156,24.099-38.156c-2.008-11.547,8.535-16.066,8.535-16.066c9.037-6.024,2.008-11.548,2.008-11.548
	c-0.502-2.51-22.593-6.024-22.593-6.024c16.568,2.511,24.601-1.506,24.601-1.506c7.029-2.51,0-13.556,0-13.556
	c-5.021-9.037,2.51-17.07,2.51-17.07l15.062-8.535c11.045-6.526,1.004-19.58,1.004-19.58l-22.091-31.63
	c-8.033-8.535-5.522-24.852-5.522-24.852c4.519-19.581-3.013-58.741-3.013-58.741C139.816,218.968,5.012,234.783,2,234.783V673.333z
	"/>
<path fill="#DEE387" d="M484.249,673.333h-4.041h-35.241l-22.894-71.379c-4.938-13.467-15.711-12.568-15.711-12.568l-44.894,1.796
	c-31.873,0-21.548-34.118-21.548-34.118c1.795-10.325-7.631-14.365-7.631-14.365c-8.081-5.387-1.797-10.326-1.797-10.326
	c0.449-2.243,20.202-5.387,20.202-5.387c-14.814,2.245-21.997-1.347-21.997-1.347c-6.285-2.243,0-12.12,0-12.12
	c4.488-8.081-2.245-15.264-2.245-15.264l-13.468-7.632c-9.875-5.836-0.897-17.508-0.897-17.508l19.753-28.281
	c7.183-7.632,4.938-22.222,4.938-22.222c-4.04-17.508,2.694-52.523,2.694-52.523c21.547-103.027,142.082-88.886,144.776-88.886
	V673.333z"/>
<path fill="#BCD048" d="M539.949,673.333h-4.334h-37.798l-24.556-76.558c-5.296-14.444-16.851-13.48-16.851-13.48l-48.15,1.926
	c-34.186,0-23.111-36.593-23.111-36.593c1.926-11.074-8.186-15.408-8.186-15.408c-8.666-5.777-1.926-11.075-1.926-11.075
	c0.481-2.406,21.668-5.777,21.668-5.777c-15.89,2.408-23.594-1.444-23.594-1.444c-6.741-2.406,0-13,0-13
	c4.814-8.667-2.407-16.371-2.407-16.371l-14.445-8.186c-10.592-6.259-0.963-18.777-0.963-18.777l21.187-30.334
	c7.703-8.186,5.296-23.833,5.296-23.833c-4.334-18.778,2.889-56.334,2.889-56.334c23.111-110.502,152.392-95.335,155.281-95.335
	V673.333z"/>
<path fill="#97BF0D" d="M594.28,673.333h-4.52h-39.412l-25.604-79.828c-5.522-15.062-17.571-14.057-17.571-14.057l-50.207,2.008
	c-35.646,0-24.099-38.156-24.099-38.156c2.008-11.547-8.535-16.066-8.535-16.066c-9.037-6.024-2.009-11.548-2.009-11.548
	c0.502-2.51,22.594-6.024,22.594-6.024c-16.568,2.511-24.602-1.506-24.602-1.506c-7.029-2.51,0-13.556,0-13.556
	c5.021-9.037-2.51-17.07-2.51-17.07l-15.062-8.535c-11.045-6.526-1.004-19.58-1.004-19.58l22.091-31.63
	c8.032-8.535,5.522-24.852,5.522-24.852c-4.519-19.581,3.013-58.741,3.013-58.741c24.099-115.223,158.902-99.408,161.915-99.408
	V673.333z"/>
</svg>
