<?xml version="1.0" encoding="UTF-8" standalone="no"?>
<!-- Created with Inkscape (http://www.inkscape.org/) -->

<svg
   xmlns:dc="http://purl.org/dc/elements/1.1/"
   xmlns:cc="http://creativecommons.org/ns#"
   xmlns:rdf="http://www.w3.org/1999/02/22-rdf-syntax-ns#"
   xmlns:svg="http://www.w3.org/2000/svg"
   xmlns="http://www.w3.org/2000/svg"
   xmlns:sodipodi="http://sodipodi.sourceforge.net/DTD/sodipodi-0.dtd"
   xmlns:inkscape="http://www.inkscape.org/namespaces/inkscape"
   width="210mm"
   height="297mm"
   viewBox="0 0 210 297"
   version="1.1"
   id="svg2752"
   inkscape:version="0.92.4 (5da689c313, 2019-01-14)"
   sodipodi:docname="mudoficial.svg">
  <defs
     id="defs2746" />
  <sodipodi:namedview
     id="base"
     pagecolor="#ffffff"
     bordercolor="#666666"
     borderopacity="1.0"
     inkscape:pageopacity="0.0"
     inkscape:pageshadow="2"
     inkscape:zoom="0.98994949"
     inkscape:cx="242.3576"
     inkscape:cy="586.27417"
     inkscape:document-units="mm"
     inkscape:current-layer="layer1"
     showgrid="false"
     inkscape:window-width="1920"
     inkscape:window-height="1017"
     inkscape:window-x="-8"
     inkscape:window-y="-8"
     inkscape:window-maximized="1" />
  <metadata
     id="metadata2749">
    <rdf:RDF>
      <cc:Work
         rdf:about="">
        <dc:format>image/svg+xml</dc:format>
        <dc:type
           rdf:resource="http://purl.org/dc/dcmitype/StillImage" />
        <dc:title />
      </cc:Work>
    </rdf:RDF>
  </metadata>
  <g
     inkscape:label="Camada 1"
     inkscape:groupmode="layer"
     id="layer1">
    <g
       id="g21">
      <path
         inkscape:connector-curvature="0"
         id="path4618-3-5-8"
         d="m 146.00767,97.11027 a 20.3125,20.3125 0 0 0 -20.31246,20.31245 20.3125,20.3125 0 0 0 20.31246,20.31245 20.3125,20.3125 0 0 0 20.31244,-20.31245 20.3125,20.3125 0 0 0 -20.31244,-20.31245 z m -6.82284,5.88025 h 5.29993 2.18385 v 0.18449 a 14.432554,14.432554 0 0 1 12.24885,14.24771 14.432554,14.432554 0 0 1 -12.24885,14.25546 v 0.17725 h -2.18385 -5.29993 v -1.02216 a 14.432554,14.432554 0 0 1 -9.13278,-13.41055 14.432554,14.432554 0 0 1 9.13278,-13.41985 z"
         style="fill:#2ca089;fill-opacity:1;stroke:none;stroke-width:1.27803361;stroke-miterlimit:4;stroke-dasharray:none;stroke-opacity:1" />
      <path
         inkscape:connector-curvature="0"
         id="rect4632-6-92-4"
         d="m 126.89876,97.11027 v 40.6249 h 19.7776 v -40.6249 z m 12.28607,5.88025 h 7.48378 v 28.86491 h -7.48378 z"
         style="fill:#2ca089;fill-opacity:1;stroke:none;stroke-width:0.88133085;stroke-miterlimit:4;stroke-dasharray:none;stroke-opacity:1" />
      <path
         inkscape:connector-curvature="0"
         id="rect3713-7-28-5"
         d="m 49.882261,97.11026 v 40.62491 H 90.507182 V 97.11026 H 89.972854 L 70.066041,117.01654 50.159761,97.11026 Z"
         style="fill:#217867;fill-opacity:1;stroke-width:0.15233584" />
      <path
         inkscape:connector-curvature="0"
         id="path4720-5-9-0"
         d="m 49.882261,97.11027 40.624921,40.6249 H 49.882261 Z"
         style="fill:#5fd3bc;fill-opacity:1;stroke:none;stroke-width:0.26458332px;stroke-linecap:butt;stroke-linejoin:miter;stroke-opacity:1" />
      <rect
         y="86.756996"
         x="96.178604"
         height="4.0031753"
         width="4.0031753"
         id="rect4724-3-7-3"
         style="fill:#217867;fill-opacity:1;stroke:#217867;stroke-width:1.81765783;stroke-linecap:round;stroke-linejoin:round;stroke-miterlimit:4;stroke-dasharray:none;stroke-opacity:1" />
      <path
         inkscape:connector-curvature="0"
         id="rect3713-6-56-36-6"
         d="m 89.978013,97.11026 v 40.62491 H 130.60292 V 97.11026 h -5.78673 v 20.29799 a 14.432554,14.432554 0 0 1 5.3e-4,0.0145 14.432554,14.432554 0 0 1 -5.3e-4,0.0103 v 1.00666 h -0.0506 A 14.432554,14.432554 0 0 1 110.38401,131.85543 14.432554,14.432554 0 0 1 95.987476,118.4397 h -0.0362 v -1.01699 -20.31246 z"
         style="fill:#165044;fill-opacity:1;stroke:none;stroke-width:1.26312077;stroke-miterlimit:4;stroke-dasharray:none;stroke-opacity:1" />
      <rect
         y="86.756996"
         x="120.39917"
         height="4.0031753"
         width="4.0031753"
         id="rect4724-9-2-1-1"
         style="fill:#217867;fill-opacity:1;stroke:#217867;stroke-width:1.81765783;stroke-linecap:round;stroke-linejoin:round;stroke-miterlimit:4;stroke-dasharray:none;stroke-opacity:1" />
    </g>
  </g>
</svg>
